# xmcd
#
# Track frame offsets:
#	150
#	14675
#	33546
#	47669
#	63560
#	81049
#	100239
#	118396
#	133073
#	152484
#	167674
#	186180
#	208608
#	222026
#	241369
#	261985
#	278965
#
# Disc length: 3933
#
# Revision: 2
# Processed by: cddbd v1.5.1PL0 Copyright (c) Steve Scherf et al.
# Submitted via: dBpowerAMP V4.0
# Normalized: r0:TDELIM( - ),TSWAP
#
DISCID=fb0f5b11
DTITLE=Various Artist - Patriotic Country
DYEAR=1900
DGENRE=
TTITLE0=Lee Greenwood - God Bless The U.S.A.
TTITLE1=Montgomery Gentry - My Town
TTITLE2=Brooks and Dunn - Till My Dyin' Day
TTITLE3=Martina McBride - God Bless America
TTITLE4=Aaron Tippin - Where The Stars and the Stripes and The Eagles Fly
TTITLE5=Lonestar - I'm Already There
TTITLE6=Randy Travis - America Will Always Stand
TTITLE7=Phil Vassar - American Child
TTITLE8=Kenny Chesney - Back Where I Come From
TTITLE9=Alabama - Born Country
TTITLE10=Neil McCoy - I'm Your Biggest Fan (Previously Unreleased)
TTITLE11=Hank Williams, Jr - America Will Survive
TTITLE12=Backhawk - Days of America
TTITLE13=Hey Mr. President - Warren Brothers
TTITLE14=David Ball - Riding With Private Malone
TTITLE15=Dusty Drake - One Last Time
TTITLE16=Kenny Rogers - Homeland
EXTD=
EXTT0=
EXTT1=
EXTT2=
EXTT3=
EXTT4=
EXTT5=
EXTT6=
EXTT7=
EXTT8=
EXTT9=
EXTT10=
EXTT11=
EXTT12=
EXTT13=
EXTT14=
EXTT15=
EXTT16=
PLAYORDER=
